<svg xmlns="http://www.w3.org/2000/svg" width="20" height="20" viewBox="0 0 20 20">
    <g data-name="사각형 6002" style="fill:#e74c3c;stroke:#e74c3c;stroke-width:1.5px">
        <rect width="20" height="20" rx="4" style="stroke:none"/>
        <rect x=".75" y=".75" width="18.5" height="18.5" rx="3.25" style="fill:none"/>
    </g>
    <path data-name="패스 3982" d="M18.352 19.263a.694.694 0 0 1-.431-.152 1.143 1.143 0 0 1-.5-1.049c.081-.761.978-1.558 2.667-2.37a32.445 32.445 0 0 0 1.688-5.028c-.445-1.016-.877-2.334-.562-3.107a.881.881 0 0 1 .505-.568 2.094 2.094 0 0 1 .453-.08c.225 0 .422.3.562.491s.43.549-.166 3.181a15.008 15.008 0 0 0 2.268 3.537 8.276 8.276 0 0 1 1.5-.167c.7 0 1.121.171 1.293.522a.983.983 0 0 1-.174 1.01 1.17 1.17 0 0 1-.989.557 2.92 2.92 0 0 1-1.877-1.069 20.638 20.638 0 0 0-3.934 1.32 13.464 13.464 0 0 1-1.062 1.988c-.457.671-.851.984-1.241.984zm1.186-2.4c-.952.562-1.341 1.023-1.369 1.283 0 .043-.016.156.192.324.067-.019.455-.205 1.178-1.604zm6.077-2.078c.363.293.452.442.689.442a.653.653 0 0 0 .539-.206.753.753 0 0 0 .1-.194c-.055-.03-.127-.092-.524-.092a6.213 6.213 0 0 0-.803.053zm-3.328-3.075a34.457 34.457 0 0 1-1.187 3.537 21.5 21.5 0 0 1 2.9-.945 16.057 16.057 0 0 1-1.713-2.592zm-.271-3.958a1.163 1.163 0 0 0 .043 1.5c.423-.985-.023-1.507-.043-1.5z" transform="translate(-12.562 -3.151)" style="fill:#fff"/>
</svg>
